<?xml version="1.0" encoding="UTF-8"?>
<svg xmlns="http://www.w3.org/2000/svg" xmlns:xlink="http://www.w3.org/1999/xlink" width="56px" height="56px" viewBox="0 0 56 56" version="1.1">
<g id="surface1">
<path style=" stroke:none;fill-rule:evenodd;fill:rgb(52.156863%,12.54902%,23.137255%);fill-opacity:1;" d="M 47.347656 40.890625 L 48.546875 42.089844 C 48.859375 42.40625 48.859375 42.917969 48.546875 43.234375 L 47.582031 44.207031 C 47.851562 44.707031 48.054688 45.246094 48.183594 45.800781 L 49.433594 45.800781 C 49.882812 45.804688 50.242188 46.164062 50.242188 46.613281 L 50.242188 48.308594 C 50.242188 48.753906 49.882812 49.117188 49.433594 49.117188 L 48.066406 49.117188 C 47.902344 49.664062 47.664062 50.183594 47.363281 50.667969 L 48.246094 51.550781 C 48.558594 51.867188 48.558594 52.378906 48.246094 52.695312 L 47.046875 53.894531 C 46.730469 54.210938 46.214844 54.210938 45.898438 53.894531 L 44.949219 52.921875 C 44.445312 53.191406 43.910156 53.390625 43.355469 53.519531 L 43.355469 54.769531 C 43.359375 54.988281 43.277344 55.203125 43.121094 55.359375 C 42.96875 55.515625 42.753906 55.601562 42.535156 55.597656 L 40.847656 55.597656 C 40.40625 55.597656 40.046875 55.238281 40.042969 54.792969 L 40.042969 53.425781 C 39.496094 53.257812 38.976562 53.019531 38.492188 52.71875 L 37.609375 53.601562 C 37.292969 53.917969 36.78125 53.917969 36.464844 53.601562 L 35.257812 52.410156 C 35.105469 52.257812 35.015625 52.050781 35.015625 51.835938 C 35.015625 51.617188 35.105469 51.410156 35.257812 51.261719 L 36.21875 50.300781 C 35.953125 49.796875 35.75 49.257812 35.621094 48.703125 L 34.367188 48.703125 C 34.148438 48.703125 33.933594 48.609375 33.78125 48.449219 C 33.628906 48.289062 33.546875 48.074219 33.558594 47.851562 L 33.558594 46.15625 C 33.558594 45.710938 33.921875 45.347656 34.367188 45.351562 L 35.734375 45.351562 C 35.902344 44.804688 36.140625 44.28125 36.441406 43.800781 L 35.558594 42.914062 C 35.242188 42.597656 35.242188 42.089844 35.558594 41.773438 L 36.746094 40.59375 C 36.898438 40.4375 37.105469 40.351562 37.320312 40.351562 C 37.535156 40.351562 37.742188 40.4375 37.890625 40.59375 L 38.859375 41.554688 C 39.359375 41.285156 39.898438 41.082031 40.453125 40.957031 L 40.453125 39.707031 C 40.453125 39.257812 40.816406 38.898438 41.265625 38.898438 L 42.953125 38.898438 C 43.402344 38.898438 43.765625 39.257812 43.765625 39.707031 L 43.765625 41.074219 C 44.3125 41.238281 44.832031 41.476562 45.316406 41.78125 L 46.199219 40.898438 C 46.519531 40.585938 47.023438 40.585938 47.34375 40.898438 Z M 31.160156 53.507812 C 31.625 53.480469 32.0625 53.710938 32.304688 54.109375 C 32.542969 54.503906 32.542969 55.003906 32.304688 55.398438 C 32.0625 55.796875 31.625 56.027344 31.160156 56 L 8.664062 56 C 7.0625 56 5.761719 54.699219 5.757812 53.097656 L 5.757812 2.890625 C 5.769531 1.296875 7.0625 0.0078125 8.65625 0 L 44.335938 0 C 45.933594 0.0117188 47.226562 1.308594 47.230469 2.90625 L 47.230469 33.035156 C 47.257812 33.5 47.027344 33.941406 46.625 34.183594 C 46.226562 34.425781 45.730469 34.425781 45.332031 34.183594 C 44.929688 33.941406 44.699219 33.5 44.726562 33.035156 L 44.726562 7.109375 C 44.726562 7 44.683594 6.898438 44.609375 6.824219 C 44.53125 6.746094 44.429688 6.703125 44.320312 6.699219 L 8.664062 6.699219 C 8.558594 6.703125 8.453125 6.746094 8.375 6.816406 C 8.296875 6.898438 8.253906 7.003906 8.253906 7.113281 L 8.253906 53.09375 C 8.257812 53.199219 8.300781 53.296875 8.378906 53.371094 C 8.457031 53.449219 8.558594 53.496094 8.671875 53.5 L 31.160156 53.5 Z M 13.769531 39.960938 L 13.769531 37.140625 L 30.992188 37.140625 L 30.992188 39.9375 Z M 13.769531 47.476562 L 13.769531 44.660156 L 25.917969 44.660156 L 25.917969 47.453125 Z M 37.085938 29.394531 L 37.085938 31.96875 L 33.4375 31.96875 L 33.4375 29.394531 Z M 30.53125 27.117188 L 30.53125 31.96875 L 26.886719 31.96875 L 26.886719 27.125 Z M 23.988281 20.1875 L 23.988281 31.96875 L 20.339844 31.96875 L 20.339844 20.1875 Z M 17.433594 15.332031 L 17.433594 31.96875 L 13.789062 31.96875 L 13.789062 15.332031 Z M 35.417969 17.152344 L 41.386719 17.152344 C 41.375 19.136719 40.382812 20.984375 38.734375 22.089844 L 35.417969 17.132812 Z M 34.8125 15.949219 L 34.492188 9.570312 C 34.488281 9.511719 34.507812 9.449219 34.546875 9.40625 C 34.589844 9.359375 34.644531 9.335938 34.707031 9.332031 L 34.960938 9.332031 C 38.46875 9.296875 41.394531 11.996094 41.636719 15.496094 C 41.644531 15.554688 41.625 15.613281 41.582031 15.660156 C 41.542969 15.707031 41.488281 15.734375 41.429688 15.738281 L 35.046875 16.191406 C 34.988281 16.195312 34.929688 16.175781 34.882812 16.136719 C 34.835938 16.097656 34.808594 16.042969 34.804688 15.984375 Z M 35.1875 9.785156 L 35.484375 15.496094 L 40.847656 14.988281 C 40.730469 13.605469 40.074219 12.324219 39.027344 11.417969 C 37.90625 10.386719 36.867188 9.765625 35.238281 9.785156 Z M 34.09375 16.863281 L 37.285156 22.398438 C 35.058594 23.671875 32.285156 23.492188 30.246094 21.933594 C 28.207031 20.378906 27.296875 17.75 27.9375 15.265625 C 28.578125 12.785156 30.644531 10.925781 33.183594 10.550781 L 34.09375 16.875 Z M 41.902344 43.914062 C 43.738281 43.914062 45.230469 45.402344 45.230469 47.242188 C 45.230469 49.078125 43.738281 50.566406 41.902344 50.566406 C 40.066406 50.566406 38.574219 49.078125 38.574219 47.242188 C 38.574219 45.402344 40.066406 43.914062 41.902344 43.914062 Z M 41.902344 43.914062 "/>
</g>
</svg>
