<?xml version="1.0" encoding="UTF-8"?>
<svg xmlns="http://www.w3.org/2000/svg" xmlns:xlink="http://www.w3.org/1999/xlink" width="56px" height="56px" viewBox="0 0 56 56" version="1.1">
<g id="surface1">
<path style=" stroke:none;fill-rule:evenodd;fill:rgb(52.156863%,12.54902%,23.137255%);fill-opacity:1;" d="M 8.730469 35.300781 L 8.730469 55.09375 C 8.71875 55.585938 8.355469 55.980469 7.910156 55.980469 L 0.855469 55.980469 C 0.414062 55.980469 0.0507812 55.589844 0.0390625 55.097656 L 0.0390625 35.300781 Z M 18.699219 0 C 23.875 0 28.074219 4.652344 28.074219 10.390625 C 28.070312 16.128906 23.871094 20.78125 18.695312 20.777344 C 13.515625 20.777344 9.320312 16.121094 9.320312 10.382812 C 9.320312 4.648438 13.519531 -0.00390625 18.699219 0 Z M 17.894531 5.355469 L 17.894531 4.3125 L 19.195312 4.3125 L 19.195312 5.320312 C 19.351562 5.320312 19.511719 5.320312 19.648438 5.367188 C 19.980469 5.40625 20.289062 5.453125 20.558594 5.511719 C 20.828125 5.574219 21.113281 5.628906 21.347656 5.6875 L 21.347656 7.734375 C 20.976562 7.699219 20.5625 7.671875 20.105469 7.652344 C 19.644531 7.628906 19.226562 7.617188 18.851562 7.617188 C 18.652344 7.613281 18.449219 7.632812 18.25 7.671875 C 18.101562 7.691406 17.957031 7.765625 17.847656 7.882812 C 17.742188 8.007812 17.6875 8.175781 17.699219 8.347656 L 17.699219 8.484375 C 17.691406 8.675781 17.761719 8.859375 17.890625 8.988281 C 18.0625 9.117188 18.269531 9.175781 18.480469 9.160156 L 19.269531 9.160156 C 19.757812 9.136719 20.238281 9.261719 20.667969 9.511719 C 21.027344 9.730469 21.320312 10.066406 21.511719 10.46875 C 21.703125 10.894531 21.796875 11.367188 21.789062 11.839844 L 21.789062 12.28125 C 21.835938 12.949219 21.714844 13.621094 21.429688 14.210938 C 21.171875 14.660156 20.769531 14.988281 20.308594 15.128906 C 19.945312 15.242188 19.570312 15.3125 19.195312 15.335938 L 19.195312 16.480469 L 17.894531 16.480469 L 17.894531 15.320312 L 17.785156 15.320312 C 17.535156 15.320312 17.285156 15.277344 17.046875 15.242188 C 16.804688 15.207031 16.589844 15.164062 16.34375 15.121094 C 16.097656 15.074219 15.890625 15.023438 15.695312 14.964844 L 15.695312 12.910156 C 15.964844 12.910156 16.261719 12.960938 16.578125 12.976562 C 16.890625 12.992188 17.214844 13.007812 17.535156 13.015625 L 18.445312 13.015625 C 18.667969 13.019531 18.890625 12.996094 19.105469 12.949219 C 19.253906 12.921875 19.390625 12.847656 19.503906 12.738281 C 19.59375 12.628906 19.640625 12.484375 19.636719 12.335938 L 19.636719 12.179688 C 19.644531 12.007812 19.574219 11.84375 19.449219 11.742188 C 19.316406 11.636719 19.15625 11.585938 18.992188 11.59375 L 18.355469 11.59375 C 17.601562 11.652344 16.851562 11.410156 16.246094 10.914062 C 15.765625 10.464844 15.523438 9.707031 15.523438 8.644531 L 15.523438 8.21875 C 15.476562 7.398438 15.773438 6.601562 16.324219 6.050781 C 16.78125 5.667969 17.324219 5.433594 17.894531 5.375 Z M 0.0390625 28.84375 L 9.671875 19.503906 L 10.054688 19.945312 C 11.640625 21.703125 13.628906 22.945312 15.808594 23.53125 L 10.40625 28.84375 Z M 26.84375 20.433594 C 28.210938 22.058594 29.539062 23.652344 30.898438 25.140625 L 45.796875 8.574219 L 41 3.238281 L 55.960938 1.988281 L 55.105469 18.882812 L 50.519531 13.78125 C 47.214844 17.488281 39.402344 25.664062 36.097656 29.332031 C 31.914062 33.960938 29.921875 34.046875 25.738281 29.410156 L 21.0625 23.648438 C 23.214844 23.171875 25.210938 22.0625 26.84375 20.433594 Z M 51.308594 23.964844 L 51.308594 55.101562 C 51.304688 55.601562 50.9375 56.003906 50.488281 56.003906 L 43.433594 56.003906 C 42.984375 56.003906 42.617188 55.601562 42.613281 55.101562 L 42.613281 31.554688 C 43.980469 30.109375 45.53125 28.429688 47.132812 26.71875 L 50.472656 23.152344 L 50.613281 23.300781 C 50.828125 23.539062 51.0625 23.761719 51.308594 23.960938 Z M 37.117188 37.042969 L 37.117188 55.097656 C 37.109375 55.59375 36.746094 55.996094 36.296875 56 L 29.242188 56 C 28.792969 56 28.425781 55.597656 28.421875 55.097656 L 28.421875 38.957031 C 29.261719 39.183594 30.121094 39.292969 30.984375 39.285156 C 33.1875 39.25 35.324219 38.46875 37.113281 37.042969 Z M 22.921875 35.578125 L 22.921875 55.097656 C 22.917969 55.597656 22.550781 56 22.101562 56 L 15.054688 56 C 14.605469 55.996094 14.242188 55.59375 14.238281 55.097656 L 14.238281 33.914062 C 14.382812 33.800781 14.519531 33.671875 14.65625 33.542969 L 18.183594 30.078125 L 21.023438 33.578125 L 21.242188 33.835938 C 21.816406 34.46875 22.378906 35.054688 22.929688 35.578125 Z M 22.921875 35.578125 "/>
</g>
</svg>
