<?xml version="1.0" encoding="UTF-8"?>
<svg xmlns="http://www.w3.org/2000/svg" xmlns:xlink="http://www.w3.org/1999/xlink" width="56px" height="56px" viewBox="0 0 56 56" version="1.1">
<g id="surface1">
<path style=" stroke:none;fill-rule:nonzero;fill:rgb(52.156863%,12.54902%,23.137255%);fill-opacity:1;" d="M 32.535156 42.1875 C 32.285156 42.1875 32.035156 42.152344 31.789062 42.085938 C 31.046875 41.890625 30.429688 41.414062 30.046875 40.75 C 29.738281 40.21875 29.160156 39.914062 28.550781 39.9375 C 28.164062 39.953125 27.773438 39.953125 27.390625 39.933594 C 26.773438 39.910156 26.199219 40.21875 25.890625 40.75 C 25.507812 41.414062 24.890625 41.890625 24.148438 42.085938 C 23.410156 42.289062 22.636719 42.183594 21.972656 41.800781 L 18.988281 40.078125 C 17.617188 39.285156 17.148438 37.527344 17.9375 36.160156 C 18.246094 35.628906 18.222656 34.960938 17.875 34.421875 C 17.777344 34.273438 17.683594 34.117188 17.59375 33.957031 C 17.503906 33.800781 17.414062 33.640625 17.332031 33.480469 C 17.039062 32.914062 16.476562 32.558594 15.859375 32.558594 C 14.277344 32.558594 12.992188 31.273438 12.992188 29.691406 L 12.992188 26.246094 C 12.992188 24.664062 14.277344 23.378906 15.859375 23.378906 C 16.476562 23.378906 17.035156 23.035156 17.316406 22.488281 C 17.492188 22.144531 17.6875 21.804688 17.894531 21.480469 C 18.230469 20.964844 18.246094 20.3125 17.9375 19.777344 C 17.148438 18.410156 17.617188 16.652344 18.988281 15.859375 L 21.972656 14.136719 C 22.636719 13.753906 23.410156 13.652344 24.148438 13.851562 C 24.890625 14.046875 25.507812 14.523438 25.890625 15.1875 C 26.199219 15.71875 26.769531 16.039062 27.386719 16.003906 C 27.769531 15.984375 28.160156 15.984375 28.546875 16.003906 C 29.152344 16.027344 29.738281 15.71875 30.046875 15.1875 C 30.839844 13.816406 32.597656 13.347656 33.964844 14.136719 L 36.949219 15.859375 C 37.613281 16.242188 38.089844 16.863281 38.285156 17.601562 C 38.484375 18.34375 38.382812 19.113281 38 19.777344 C 37.691406 20.3125 37.714844 20.976562 38.0625 21.515625 C 38.160156 21.667969 38.253906 21.820312 38.34375 21.980469 C 38.433594 22.136719 38.523438 22.296875 38.605469 22.457031 C 38.898438 23.023438 39.464844 23.378906 40.078125 23.378906 C 41.660156 23.378906 42.945312 24.664062 42.945312 26.246094 L 42.945312 29.691406 C 42.945312 31.273438 41.660156 32.558594 40.078125 32.558594 C 39.460938 32.558594 38.90625 32.902344 38.621094 33.449219 C 38.449219 33.789062 38.253906 34.128906 38.042969 34.457031 C 37.707031 34.976562 37.691406 35.625 38 36.160156 C 38.789062 37.527344 38.320312 39.285156 36.949219 40.078125 L 33.964844 41.800781 C 33.523438 42.054688 33.03125 42.1875 32.535156 42.1875 Z M 23.402344 14.984375 C 23.125 14.984375 22.84375 15.054688 22.585938 15.203125 L 19.601562 16.925781 C 19.222656 17.144531 18.953125 17.496094 18.839844 17.921875 C 18.726562 18.34375 18.785156 18.785156 19.003906 19.164062 C 19.542969 20.097656 19.515625 21.238281 18.929688 22.144531 C 18.742188 22.4375 18.570312 22.742188 18.410156 23.050781 C 17.917969 24.011719 16.941406 24.609375 15.863281 24.609375 C 14.957031 24.609375 14.222656 25.34375 14.222656 26.246094 L 14.222656 29.691406 C 14.222656 30.597656 14.957031 31.332031 15.859375 31.332031 C 16.9375 31.332031 17.917969 31.941406 18.425781 32.917969 C 18.5 33.0625 18.578125 33.203125 18.660156 33.34375 C 18.742188 33.484375 18.824219 33.625 18.910156 33.757812 C 19.503906 34.6875 19.539062 35.84375 19.003906 36.773438 C 18.550781 37.554688 18.820312 38.5625 19.601562 39.011719 L 22.585938 40.738281 C 22.96875 40.957031 23.410156 41.011719 23.832031 40.902344 C 24.253906 40.789062 24.609375 40.515625 24.828125 40.136719 C 25.367188 39.203125 26.375 38.65625 27.449219 38.707031 C 27.792969 38.722656 28.144531 38.726562 28.492188 38.710938 C 29.574219 38.652344 30.574219 39.203125 31.113281 40.136719 C 31.332031 40.515625 31.683594 40.789062 32.105469 40.902344 C 32.53125 41.011719 32.96875 40.957031 33.351562 40.738281 L 36.335938 39.011719 C 37.117188 38.5625 37.386719 37.558594 36.933594 36.773438 C 36.394531 35.839844 36.421875 34.699219 37.007812 33.792969 C 37.195312 33.496094 37.371094 33.191406 37.527344 32.890625 C 38.023438 31.929688 39 31.332031 40.078125 31.332031 C 40.980469 31.332031 41.714844 30.597656 41.714844 29.691406 L 41.714844 26.246094 C 41.714844 25.34375 40.980469 24.605469 40.078125 24.605469 C 39 24.605469 38.019531 24 37.511719 23.019531 C 37.4375 22.878906 37.359375 22.734375 37.277344 22.59375 C 37.199219 22.453125 37.113281 22.3125 37.027344 22.179688 C 36.433594 21.25 36.398438 20.097656 36.933594 19.164062 C 37.152344 18.785156 37.210938 18.34375 37.097656 17.921875 C 36.984375 17.496094 36.714844 17.144531 36.335938 16.925781 L 33.351562 15.203125 C 32.570312 14.75 31.566406 15.019531 31.113281 15.800781 C 30.574219 16.734375 29.566406 17.277344 28.488281 17.230469 C 28.140625 17.214844 27.789062 17.214844 27.445312 17.230469 C 26.367188 17.273438 25.367188 16.734375 24.828125 15.800781 C 24.523438 15.277344 23.972656 14.984375 23.402344 14.984375 Z M 23.402344 14.984375 "/>
<path style=" stroke:none;fill-rule:nonzero;fill:rgb(52.156863%,12.54902%,23.137255%);fill-opacity:1;" d="M 27.96875 36.433594 C 23.300781 36.433594 19.503906 32.636719 19.503906 27.96875 C 19.503906 23.300781 23.300781 19.503906 27.96875 19.503906 C 32.636719 19.503906 36.433594 23.300781 36.433594 27.96875 C 36.433594 32.636719 32.636719 36.433594 27.96875 36.433594 Z M 27.96875 20.734375 C 23.980469 20.734375 20.734375 23.980469 20.734375 27.96875 C 20.734375 31.957031 23.980469 35.203125 27.96875 35.203125 C 31.957031 35.203125 35.203125 31.957031 35.203125 27.96875 C 35.203125 23.980469 31.957031 20.734375 27.96875 20.734375 Z M 27.96875 20.734375 "/>
<path style=" stroke:none;fill-rule:nonzero;fill:rgb(52.156863%,12.54902%,23.137255%);fill-opacity:1;" d="M 31.542969 31.90625 C 31.203125 31.90625 30.929688 31.632812 30.929688 31.292969 L 30.929688 24.644531 C 30.929688 24.304688 31.203125 24.03125 31.542969 24.03125 C 31.882812 24.03125 32.160156 24.304688 32.160156 24.644531 L 32.160156 31.292969 C 32.160156 31.632812 31.882812 31.90625 31.542969 31.90625 Z M 31.542969 31.90625 "/>
<path style=" stroke:none;fill-rule:nonzero;fill:rgb(52.156863%,12.54902%,23.137255%);fill-opacity:1;" d="M 32.457031 31.90625 L 30.632812 31.90625 C 30.292969 31.90625 30.019531 31.632812 30.019531 31.292969 C 30.019531 30.953125 30.292969 30.675781 30.632812 30.675781 L 32.457031 30.675781 C 32.796875 30.675781 33.070312 30.953125 33.070312 31.292969 C 33.070312 31.632812 32.796875 31.90625 32.457031 31.90625 Z M 32.457031 25.261719 L 30.632812 25.261719 C 30.292969 25.261719 30.019531 24.984375 30.019531 24.644531 C 30.019531 24.304688 30.292969 24.03125 30.632812 24.03125 L 32.457031 24.03125 C 32.796875 24.03125 33.070312 24.304688 33.070312 24.644531 C 33.070312 24.984375 32.796875 25.261719 32.457031 25.261719 Z M 23.480469 31.90625 C 23.410156 31.90625 23.339844 31.894531 23.269531 31.867188 C 22.949219 31.75 22.789062 31.398438 22.90625 31.078125 L 25.351562 24.433594 C 25.441406 24.191406 25.671875 24.03125 25.925781 24.03125 C 26.183594 24.03125 26.414062 24.191406 26.503906 24.433594 L 28.949219 31.078125 C 29.066406 31.398438 28.902344 31.75 28.585938 31.867188 C 28.265625 31.984375 27.914062 31.824219 27.796875 31.503906 L 25.925781 26.425781 L 24.058594 31.503906 C 23.96875 31.753906 23.730469 31.90625 23.480469 31.90625 Z M 23.480469 31.90625 "/>
<path style=" stroke:none;fill-rule:nonzero;fill:rgb(52.156863%,12.54902%,23.137255%);fill-opacity:1;" d="M 27.789062 30.324219 L 24.0625 30.324219 C 23.726562 30.324219 23.449219 30.050781 23.449219 29.710938 C 23.449219 29.371094 23.726562 29.09375 24.0625 29.09375 L 27.789062 29.09375 C 28.128906 29.09375 28.40625 29.371094 28.40625 29.710938 C 28.40625 30.050781 28.128906 30.324219 27.789062 30.324219 Z M 7.238281 13.921875 C 5.539062 13.921875 4.152344 12.535156 4.152344 10.835938 C 4.152344 9.132812 5.539062 7.75 7.238281 7.75 C 8.941406 7.75 10.324219 9.132812 10.324219 10.835938 C 10.324219 12.535156 8.941406 13.921875 7.238281 13.921875 Z M 7.238281 8.980469 C 6.214844 8.980469 5.382812 9.8125 5.382812 10.835938 C 5.382812 11.859375 6.214844 12.691406 7.238281 12.691406 C 8.265625 12.691406 9.097656 11.859375 9.097656 10.835938 C 9.097656 9.8125 8.265625 8.980469 7.238281 8.980469 Z M 7.238281 8.980469 "/>
<path style=" stroke:none;fill-rule:nonzero;fill:rgb(52.156863%,12.54902%,23.137255%);fill-opacity:1;" d="M 20.558594 16.277344 C 20.421875 16.277344 20.285156 16.234375 20.171875 16.140625 L 14.359375 11.449219 L 9.710938 11.449219 C 9.371094 11.449219 9.097656 11.175781 9.097656 10.835938 C 9.097656 10.496094 9.371094 10.21875 9.710938 10.21875 L 14.574219 10.21875 C 14.714844 10.21875 14.851562 10.269531 14.960938 10.355469 L 20.945312 15.183594 C 21.207031 15.398438 21.25 15.785156 21.035156 16.050781 C 20.914062 16.199219 20.738281 16.277344 20.558594 16.277344 Z M 48.699219 48.1875 C 46.996094 48.1875 45.613281 46.804688 45.613281 45.101562 C 45.613281 43.402344 46.996094 42.015625 48.699219 42.015625 C 50.398438 42.015625 51.785156 43.402344 51.785156 45.101562 C 51.785156 46.804688 50.398438 48.1875 48.699219 48.1875 Z M 48.699219 43.246094 C 47.675781 43.246094 46.839844 44.078125 46.839844 45.101562 C 46.839844 46.128906 47.671875 46.960938 48.699219 46.960938 C 49.722656 46.960938 50.554688 46.128906 50.554688 45.101562 C 50.554688 44.078125 49.722656 43.246094 48.699219 43.246094 Z M 48.699219 43.246094 "/>
<path style=" stroke:none;fill-rule:nonzero;fill:rgb(52.156863%,12.54902%,23.137255%);fill-opacity:1;" d="M 46.226562 45.71875 L 41.363281 45.71875 C 41.222656 45.71875 41.085938 45.667969 40.976562 45.582031 L 34.992188 40.753906 C 34.730469 40.539062 34.6875 40.152344 34.902344 39.886719 C 35.113281 39.625 35.5 39.582031 35.765625 39.796875 L 41.582031 44.488281 L 46.226562 44.488281 C 46.566406 44.488281 46.839844 44.761719 46.839844 45.101562 C 46.839844 45.441406 46.566406 45.71875 46.226562 45.71875 Z M 48.699219 13.921875 C 46.996094 13.921875 45.613281 12.535156 45.613281 10.835938 C 45.613281 9.132812 46.996094 7.75 48.699219 7.75 C 50.398438 7.75 51.785156 9.132812 51.785156 10.835938 C 51.785156 12.535156 50.398438 13.921875 48.699219 13.921875 Z M 48.699219 8.980469 C 47.675781 8.980469 46.839844 9.8125 46.839844 10.835938 C 46.839844 11.859375 47.671875 12.691406 48.699219 12.691406 C 49.722656 12.691406 50.554688 11.859375 50.554688 10.835938 C 50.554688 9.8125 49.722656 8.980469 48.699219 8.980469 Z M 48.699219 8.980469 "/>
<path style=" stroke:none;fill-rule:nonzero;fill:rgb(52.156863%,12.54902%,23.137255%);fill-opacity:1;" d="M 35.378906 16.277344 C 35.199219 16.277344 35.023438 16.199219 34.902344 16.050781 C 34.6875 15.785156 34.730469 15.398438 34.992188 15.183594 L 40.976562 10.355469 C 41.085938 10.269531 41.222656 10.21875 41.363281 10.21875 L 46.226562 10.21875 C 46.566406 10.21875 46.839844 10.496094 46.839844 10.835938 C 46.839844 11.175781 46.566406 11.449219 46.226562 11.449219 L 41.578125 11.449219 L 35.765625 16.140625 C 35.652344 16.234375 35.515625 16.277344 35.378906 16.277344 Z M 7.238281 48.1875 C 5.539062 48.1875 4.152344 46.804688 4.152344 45.101562 C 4.152344 43.402344 5.539062 42.015625 7.238281 42.015625 C 8.941406 42.015625 10.324219 43.402344 10.324219 45.101562 C 10.324219 46.804688 8.941406 48.1875 7.238281 48.1875 Z M 7.238281 43.246094 C 6.214844 43.246094 5.382812 44.078125 5.382812 45.101562 C 5.382812 46.128906 6.214844 46.960938 7.238281 46.960938 C 8.265625 46.960938 9.097656 46.128906 9.097656 45.101562 C 9.097656 44.078125 8.265625 43.246094 7.238281 43.246094 Z M 7.238281 43.246094 "/>
<path style=" stroke:none;fill-rule:nonzero;fill:rgb(52.156863%,12.54902%,23.137255%);fill-opacity:1;" d="M 14.574219 45.71875 L 9.710938 45.71875 C 9.371094 45.71875 9.097656 45.441406 9.097656 45.101562 C 9.097656 44.761719 9.371094 44.488281 9.710938 44.488281 L 14.359375 44.488281 L 20.171875 39.796875 C 20.4375 39.582031 20.824219 39.625 21.035156 39.886719 C 21.25 40.152344 21.207031 40.539062 20.945312 40.75 L 14.960938 45.582031 C 14.851562 45.667969 14.714844 45.71875 14.574219 45.71875 Z M 27.96875 9.03125 C 26.265625 9.03125 24.882812 7.648438 24.882812 5.945312 C 24.882812 4.246094 26.265625 2.859375 27.96875 2.859375 C 29.671875 2.859375 31.054688 4.246094 31.054688 5.945312 C 31.054688 7.648438 29.671875 9.03125 27.96875 9.03125 Z M 27.96875 4.089844 C 26.945312 4.089844 26.113281 4.921875 26.113281 5.949219 C 26.113281 6.972656 26.945312 7.804688 27.96875 7.804688 C 28.992188 7.804688 29.824219 6.972656 29.824219 5.949219 C 29.824219 4.921875 28.992188 4.089844 27.96875 4.089844 Z M 27.96875 53.078125 C 26.265625 53.078125 24.882812 51.691406 24.882812 49.992188 C 24.882812 48.289062 26.265625 46.902344 27.96875 46.902344 C 29.671875 46.902344 31.054688 48.289062 31.054688 49.992188 C 31.054688 51.691406 29.671875 53.078125 27.96875 53.078125 Z M 27.96875 48.132812 C 26.945312 48.132812 26.113281 48.96875 26.113281 49.992188 C 26.113281 51.015625 26.945312 51.847656 27.96875 51.847656 C 28.992188 51.847656 29.824219 51.015625 29.824219 49.992188 C 29.824219 48.96875 28.992188 48.132812 27.96875 48.132812 Z M 27.96875 48.132812 "/>
<path style=" stroke:none;fill-rule:nonzero;fill:rgb(52.156863%,12.54902%,23.137255%);fill-opacity:1;" d="M 27.96875 17.21875 C 27.628906 17.21875 27.355469 16.941406 27.355469 16.601562 L 27.355469 8.417969 C 27.355469 8.078125 27.628906 7.804688 27.96875 7.804688 C 28.308594 7.804688 28.582031 8.078125 28.582031 8.417969 L 28.582031 16.601562 C 28.582031 16.941406 28.308594 17.21875 27.96875 17.21875 Z M 27.96875 48.132812 C 27.628906 48.132812 27.355469 47.859375 27.355469 47.519531 L 27.355469 39.335938 C 27.355469 38.996094 27.628906 38.71875 27.96875 38.71875 C 28.308594 38.71875 28.582031 38.996094 28.582031 39.335938 L 28.582031 47.519531 C 28.582031 47.859375 28.308594 48.132812 27.96875 48.132812 Z M 3.394531 31.054688 C 1.691406 31.054688 0.308594 29.671875 0.308594 27.96875 C 0.308594 26.265625 1.691406 24.882812 3.394531 24.882812 C 5.097656 24.882812 6.480469 26.265625 6.480469 27.96875 C 6.480469 29.671875 5.09375 31.054688 3.394531 31.054688 Z M 3.394531 26.113281 C 2.371094 26.113281 1.539062 26.945312 1.539062 27.96875 C 1.539062 28.992188 2.371094 29.824219 3.394531 29.824219 C 4.417969 29.824219 5.25 28.992188 5.25 27.96875 C 5.25 26.945312 4.417969 26.113281 3.394531 26.113281 Z M 52.542969 31.054688 C 50.839844 31.054688 49.457031 29.671875 49.457031 27.96875 C 49.457031 26.265625 50.839844 24.882812 52.542969 24.882812 C 54.246094 24.882812 55.628906 26.265625 55.628906 27.96875 C 55.628906 29.671875 54.246094 31.054688 52.542969 31.054688 Z M 52.542969 26.113281 C 51.519531 26.113281 50.6875 26.945312 50.6875 27.96875 C 50.6875 28.992188 51.519531 29.824219 52.542969 29.824219 C 53.566406 29.824219 54.398438 28.992188 54.398438 27.96875 C 54.398438 26.945312 53.566406 26.113281 52.542969 26.113281 Z M 52.542969 26.113281 "/>
<path style=" stroke:none;fill-rule:nonzero;fill:rgb(52.156863%,12.54902%,23.137255%);fill-opacity:1;" d="M 13.605469 28.582031 L 5.863281 28.582031 C 5.527344 28.582031 5.25 28.308594 5.25 27.96875 C 5.25 27.628906 5.527344 27.355469 5.863281 27.355469 L 13.605469 27.355469 C 13.945312 27.355469 14.222656 27.628906 14.222656 27.96875 C 14.222656 28.308594 13.945312 28.582031 13.605469 28.582031 Z M 50.074219 28.582031 L 42.332031 28.582031 C 41.992188 28.582031 41.714844 28.308594 41.714844 27.96875 C 41.714844 27.628906 41.992188 27.355469 42.332031 27.355469 L 50.074219 27.355469 C 50.414062 27.355469 50.6875 27.628906 50.6875 27.96875 C 50.6875 28.308594 50.414062 28.582031 50.074219 28.582031 Z M 50.074219 28.582031 "/>
</g>
</svg>
